<?xml version="1.0" encoding="iso-8859-1"?>
<!-- Generator: Adobe Illustrator 23.0.4, SVG Export Plug-In . SVG Version: 6.00 Build 0)  -->
<svg version="1.1" id="Layer_1" xmlns="http://www.w3.org/2000/svg" xmlns:xlink="http://www.w3.org/1999/xlink" x="0px" y="0px"
	 width="864px" height="864px" viewBox="0 0 864 864" enable-background="new 0 0 864 864" xml:space="preserve">
<g>
	<g>
		<polygon opacity="0.25" fill="#FFFFFF" points="661.471,299.481 226.026,502.656 300.442,542.276 		"/>
		<path opacity="0.05" fill="#FFFFFF" d="M661.471,299.481L300.442,542.276l0,0l0,0l25.585,161.748L661.471,299.481z
			 M326.014,704.039l-0.006,0.002v0.004"/>
		<polyline opacity="0.05" fill="#FFFFFF" points="661.471,299.481 244.242,421.824 232.309,473.142 226.026,502.656 
			226.026,502.656 661.471,299.481 		"/>
		<polygon opacity="0.25" fill="#FFFFFF" points="661.471,299.481 244.242,421.824 135.107,297.66 		"/>
	</g>
	<g>
		<polygon fill="#0D182F" points="661.471,299.481 661.471,299.481 661.471,299.481 		"/>
		<path fill="#FFFFFF" d="M725.327,300.696C644.52,119.802,432.37,38.665,251.476,119.47
			C156.66,161.825,89.27,240.292,58.229,331.401l75.95-33.602l0.129,0.304l0.588-0.295l-0.155-0.178l526.73,1.852l0,0
			L325.319,704.137l0.052,0.326l-112.973,49.65c97.111,58.508,220.334,70.181,331.7,20.434
			C724.992,693.74,806.13,481.591,725.327,300.696z"/>
	</g>
</g>
</svg>
