<?xml version="1.0" encoding="iso-8859-1"?>
<!-- Generator: Adobe Illustrator 23.0.4, SVG Export Plug-In . SVG Version: 6.00 Build 0)  -->
<svg version="1.1" id="Layer_1" xmlns="http://www.w3.org/2000/svg" xmlns:xlink="http://www.w3.org/1999/xlink" x="0px" y="0px"
	 width="864px" height="864px" viewBox="0 0 864 864" enable-background="new 0 0 864 864" xml:space="preserve">
<g>
	<path fill="#FFFFFF" d="M312.074,771.262c5.121,1.813,10.316,3.516,15.443,5.071c33.793,10.242,68.946,15.434,104.483,15.434
		s70.69-5.192,104.483-15.434c5.127-1.555,10.322-3.258,15.443-5.071l-0.001-0.002c23.532-8.317,46.229-19.12,67.473-32.106
		c18.527-11.327,36.172-24.46,52.452-39.026c5.149-4.608,10.064-9.256,14.616-13.808c4.499-4.502,9.094-9.371,13.659-14.47
		l-11.858-10.618l11.861,10.618c31.521-35.214,55.452-75.565,71.134-119.93c13.606-38.488,20.505-78.836,20.505-119.92
		c0-198.377-161.39-359.767-359.767-359.767S72.233,233.623,72.233,432c0,41.084,6.899,81.432,20.505,119.92
		c15.683,44.365,39.614,84.715,71.134,119.93l11.861-10.618l-11.858,10.618c4.564,5.099,9.16,9.968,13.659,14.47
		c4.552,4.552,9.467,9.2,14.616,13.808c16.267,14.56,33.915,27.693,52.451,39.026c21.246,12.989,43.947,23.793,67.473,32.106
		L312.074,771.262z M119.254,530.697c-8.462-26.824-13.418-54.56-14.769-82.778h198.537c2.84,23.403,11.941,45.374,26.468,63.943
		l-18.835,18.835H119.254z M333.303,661.095V553.071l18.703-18.703c18.597,14.594,40.609,23.723,64.075,26.572v93.701
		l-82.805,82.805l-0.11-76.236l-15.781,0.022l-0.069-0.068L333.303,661.095z M744.746,530.697H553.347l-18.838-18.836
		c14.526-18.569,23.628-40.54,26.468-63.942h198.537C758.163,476.137,753.208,503.873,744.746,530.697z M511.991,534.369
		l18.706,18.705v108.021h15.919l-0.069,0.069l-11.974,0.051l-3.739-0.005v0.021l-0.137,0.001h0.137l-0.11,76.214l-82.805-82.805
		V560.94C471.383,558.09,493.394,548.962,511.991,534.369z M416.081,759.5c-17.861-0.858-35.563-3.154-52.962-6.877l52.962-52.962
		V759.5z M447.919,699.661l52.962,52.962c-17.399,3.723-35.101,6.019-52.962,6.877V699.661z M602.789,711.992
		c-12.87,7.868-26.34,14.835-40.22,20.865l0.103-71.603l-15.919-0.022h15.782v-0.137l-15.85,0.068l0.067-0.068h15.783v-76.187
		l87.442,87.442l11.118-11.118h0.138l-11.119,11.255l2.281,2.281c-0.602,0.546-1.171,1.091-1.781,1.636
		C635.768,689.69,619.678,701.664,602.789,711.992z M661.3,661.028l0,0.136l-0.137,0.001L661.3,661.028z M676.405,650.614
		l0.002,0.002c-0.502,0.561-1.003,1.084-1.506,1.638l-2.277-2.277l-0.137-0.137l-11.118,11.254v-0.136l11.118-11.118l-87.305-87.305
		h147.621C718.871,594.657,700.016,624.235,676.405,650.614z M432,104.071c175.482,0,319.204,138.556,327.537,312.01H530.1V432
		c0,26.17-10.186,50.785-28.676,69.309c-14.73,14.751-33.329,24.215-53.505,27.49v-96.936v-50.54
		c27.074-1.32,80.806-8.751,117.193-45.141c49.333-49.33,45.45-130.557,45.26-133.989l-0.784-14.234l-14.234-0.784
		c-3.439-0.177-84.656-4.073-133.995,45.257c-13.257,13.257-22.644,28.821-29.319,44.557c-6.679-15.802-16.09-31.438-29.401-44.75
		h-0.003c-49.336-49.336-130.578-45.443-133.992-45.257l-14.234,0.784L253.628,202c-0.19,3.433-4.073,84.659,45.257,133.989
		c36.392,36.392,90.126,43.82,117.197,45.139v50.735v96.936c-20.177-3.275-38.775-12.739-53.502-27.493l-11.268,11.246
		l11.264-11.249C344.085,482.785,333.9,458.173,333.9,432v-15.919H104.463C112.796,242.627,256.518,104.071,432,104.071z
		 M448.13,349.383c1.315-22.89,7.664-66.356,35.743-94.438c27.936-27.936,71.504-34.344,94.438-35.709
		c-1.368,22.942-7.779,66.502-35.709,94.434h-0.003C514.651,341.623,471.048,348.022,448.13,349.383z M415.832,349.184
		c-22.942-1.368-66.505-7.776-94.434-35.706c-27.951-27.954-34.35-71.554-35.712-94.475c22.89,1.318,66.356,7.664,94.438,35.746
		C408.059,282.686,414.467,326.254,415.832,349.184z M131.197,562.535h147.621l-87.305,87.305l11.186,11.186v0.069h-0.068
		l-11.254-11.118l-2.277,2.277c-0.503-0.554-1.003-1.077-1.506-1.638l0.002-0.002C163.984,624.235,145.129,594.657,131.197,562.535z
		 M213.386,676.405c-0.609-0.546-1.179-1.091-1.781-1.636l2.281-2.281l0.137-0.137l-11.255-11.119v-0.068l0.068,0l11.187,11.187
		l87.442-87.442v76.187v0.137l15.714-0.068l0.068,0.068l-15.919,0.022l0.103,71.604c-13.879-6.028-27.349-12.995-40.221-20.866
		C244.313,701.66,228.223,689.687,213.386,676.405z"/>
</g>
</svg>
