<?xml version="1.0" encoding="iso-8859-1"?>
<!-- Generator: Adobe Illustrator 23.0.4, SVG Export Plug-In . SVG Version: 6.00 Build 0)  -->
<svg version="1.1" id="Layer_1" xmlns="http://www.w3.org/2000/svg" xmlns:xlink="http://www.w3.org/1999/xlink" x="0px" y="0px"
	 width="864px" height="864px" viewBox="0 0 864 864" enable-background="new 0 0 864 864" xml:space="preserve">
<path fill="#FFFFFF" d="M432,72.857C233.651,72.857,72.857,233.651,72.857,432S233.651,791.143,432,791.143
	S791.143,630.349,791.143,432S630.349,72.857,432,72.857z M296.124,526.102l4.256,5.202l-66.204,51.544l-45.396-18.915
	l53.435-301.229l-42.559,9.93l-1.418-6.62l99.778-28.847l9.932,8.039L253.093,556.84L296.124,526.102z M504.658,413.082h-55.8
	l-34.521,49.181l-19.86,112.546h-62.894l35.466-200.03l-38.303,12.767l-1.893-6.148l99.307-37.358l8.039,7.093l-17.023,96.468
	l65.257-99.305h34.049L504.658,413.082z M644.627,413.082l-34.521,49.181l-19.86,112.546h-62.894l35.466-200.03l-38.303,12.767
	l-1.893-6.148l99.307-37.358l8.039,7.093l-17.023,96.468l65.257-99.305h34.049l-11.823,64.785H644.627z"/>
</svg>
