<?xml version="1.0" encoding="iso-8859-1"?>
<!-- Generator: Adobe Illustrator 23.0.4, SVG Export Plug-In . SVG Version: 6.00 Build 0)  -->
<svg version="1.1" id="Layer_1" xmlns="http://www.w3.org/2000/svg" xmlns:xlink="http://www.w3.org/1999/xlink" x="0px" y="0px"
	 width="864px" height="864px" viewBox="0 0 864 864" enable-background="new 0 0 864 864" xml:space="preserve">
<g>
	<path fill="#FFFFFF" d="M664.148,402.078c-2.303-0.654-4.217,0.268-5.414,1.155c-0.51,0.378-0.999,0.787-1.488,1.195
		c-0.147,0.122-0.294,0.244-0.441,0.366c-0.005,0.015-0.011,0.029-0.016,0.044c-0.684,1.903-1.432,3.803-2.154,5.641
		c-0.55,1.396-1.099,2.792-1.624,4.197c-0.548,1.465-0.478,2.87,0.198,3.958c0.674,1.085,1.914,1.793,3.402,1.944
		c2.197,0.225,6.258-1.575,7.343-4.797c0.456-1.352,0.957-2.691,1.441-3.985c0.451-1.208,0.903-2.415,1.319-3.635
		c0.091-0.267,0.168-0.527,0.231-0.781c0.012-0.053,0.024-0.105,0.038-0.157c0.301-1.305,0.229-2.423-0.215-3.271
		C666.307,403.07,665.425,402.44,664.148,402.078z"/>
	<path fill="#FFFFFF" d="M533.594,404.134c-0.386-0.869-1.097-1.483-2.173-1.879c-0.984-0.363-2.431-0.665-3.725-0.04
		c-2.084,1.007-3.155,1.731-3.602,3.121c-0.182,0.564-0.372,1.136-0.572,1.716c3.428,0.009,6.852,0.006,10.273-0.009
		C534.02,405.974,533.953,404.942,533.594,404.134z"/>
	<path fill="#FFFFFF" d="M98.207,399.95c2.108-1.458,4.674-1.629,7.038-0.47c0.722,0.354,1.25,0.824,1.646,1.333
		c0.375-0.265,0.777-0.513,1.208-0.741c2.525-1.336,6.557-1.972,9.871-0.385c1.312,0.628,2.367,1.531,3.14,2.67
		c1.601-1.582,3.831-3.163,6.879-3.536c3.764-0.465,7.035,0.765,8.977,3.369c1.883,2.525,2.203,6.039,0.835,9.169
		c-1.311,3.004-16.876,44.217-18.102,47.931c-0.802,2.33,0.638,4.376,2.31,5.305c0.746,0.412,3.836,0.798,7.053-0.714
		c3.758-1.768,12.505-10.033,18.892-16.068c3.395-3.207,6.327-5.978,8.219-7.533c0.072-0.06,0.147-0.114,0.226-0.165
		c2.795-1.818,5.881-1.84,8.052-0.056c2.091,1.717,2.718,4.633,1.599,7.428c-1.094,2.73-2.193,5.676-3.459,9.27
		c-0.898,2.542-0.318,3.681,0.287,4.388c1.246,1.456,2.763,1.86,4.922,1.312c2.272-0.58,3.747-1.605,4.382-3.046
		c1.531-3.472,2.851-7.153,4.126-10.713c0.429-1.198,0.858-2.396,1.296-3.59c0.191-0.522-0.065-0.823-0.313-0.983
		c-0.25-0.091-1.113-0.064-1.567,0.065c-0.418,0.796-1.253,1.338-2.214,1.338c-1.381,0-2.5-1.119-2.5-2.5
		c0-0.85,0.409-1.684,1.215-2.479c1.828-1.802,5.87-1.853,7.773-0.629c2.338,1.507,3.262,4.282,2.301,6.908
		c-0.434,1.184-0.859,2.369-1.284,3.556c-1.305,3.643-2.655,7.41-4.258,11.044c-0.037,0.085-0.076,0.169-0.116,0.253
		c0.165,0.283,0.373,0.548,0.644,0.894c0.101,0.128,0.202,0.257,0.304,0.391c2.145,2.09,8.124,2.389,12.882-1.909
		c0.025-0.022,0.05-0.044,0.076-0.065c4.709-3.921,8.715-8.183,12.589-12.305c4.5-4.787,8.751-9.31,13.96-13.283
		c0.029-0.022,0.059-0.044,0.089-0.065c0.734-0.51,1.478-0.873,2.213-1.079c2.359-0.66,4.492-0.147,6.121,1.41
		c1.382-0.97,3.042-1.589,4.746-1.715c2.583-0.199,4.907,0.772,6.369,2.645c0.664,0.851,0.955,1.796,1.189,2.556
		c0.072,0.232,0.142,0.466,0.228,0.687c0.5,1.287-0.137,2.736-1.424,3.236c-1.285,0.497-2.735-0.137-3.236-1.424
		c-0.129-0.331-0.238-0.679-0.345-1.026c-0.101-0.325-0.252-0.817-0.353-0.952c-0.541-0.692-1.417-0.783-2.059-0.734
		c-1.371,0.102-2.761,0.937-3.382,2.032c-0.612,1.078-0.755,2.074-0.405,2.805c0.296,0.615,0.959,1.048,1.82,1.188
		c2.629,0.423,4.691,1.816,5.806,3.925c1.177,2.226,1.164,4.97-0.036,7.527c-0.106,0.228-0.151,0.324,0.354,1.134
		c0.123,0.112,1.034,0.293,2.274-0.575c2.567-1.796,17.961-19.173,30.332-33.135c16.125-18.201,26.134-29.444,28.622-31.172
		c1.761-1.222,3.71-1.596,5.798-1.114c1.151,0.267,2.189,0.914,2.98,1.833c4.21-2.924,7.861-2.286,10.216-1.198
		c4.048,1.867,5.876,6.057,4.547,10.426c-0.418,1.424-1.738,1.784-2.172,1.902c-1.279,0.512-2.735-0.115-3.248-1.397
		c-0.431-1.078-0.057-2.281,0.834-2.941c0.114-1.163-0.202-2.594-2.055-3.449c-1.237-0.571-2.992-0.97-5.621,1.02
		c-0.372,0.28-0.724,0.583-1.077,0.885c-0.078,0.066-0.155,0.133-0.232,0.199c-0.017,0.05-0.035,0.1-0.054,0.15
		c-0.665,1.754-1.317,3.518-1.969,5.282c-0.61,1.651-1.22,3.301-1.841,4.947c-0.486,1.285-0.54,2.354-0.161,3.177
		c0.503,1.094,1.779,1.747,2.762,2.102c2.054,0.743,4.311,0.77,7.551,0.09c3.937-0.822,7.161-2.421,11.4-4.905
		c2.564-1.501,5.091-2.956,7.592-4.394c8.362-4.81,16.259-9.353,24.28-14.94c0.067-0.047,0.136-0.09,0.208-0.13
		c0.94-0.526,3.392-2.311,4.457-3.149c0.169-0.303,0.356-0.637,0.564-1.008c0.59-1.054,1.328-2.372,1.797-3.228
		c0.166-0.316,0.338-0.644,0.514-0.981c0.002-0.004,0.004-0.008,0.006-0.012c2.458-4.696,5.832-11.262,7.935-15.768
		c0.017-0.036,0.035-0.072,0.054-0.108c3.792-7.201,7.751-9.834,13.239-8.805c5.35,1.007,7.912,6.094,7.3,10.43
		c-0.413,3.987-2.854,6.428-5.11,8.396c-5.093,4.441-18.972,12.889-22.646,14.801c-0.328,0.59-0.587,1.063-0.673,1.236
		c-0.039,0.089-0.083,0.175-0.132,0.259l-28.041,48.153c-2.073,3.559-2.942,7.223-2.215,9.335c0.295,0.857,0.841,1.419,1.717,1.77
		c1.772,0.708,5.291-0.635,10.456-2.768c3.377-1.394,7.171-3.509,14.73-7.724l1.984-1.105c1.102-0.695,6.847-4.062,9.345-4.706
		c1.993-0.514,4.551-0.441,6.589,2.08c0.366-0.263,0.75-0.506,1.151-0.73c3.73-2.08,8.176-1.882,11.33,0.505
		c4.487,3.399,3.355,8.554,2.983,10.247c-0.424,1.912-1.916,3.081-3.934,3.031c-2.938-0.06-5.938-0.053-8.841-0.047
		c-1.335,0.003-2.671,0.006-4.006,0.002c-0.312,1.085-0.602,2.159-0.848,3.176c-0.016,0.067-0.036,0.135-0.058,0.201
		c-0.415,1.247-0.436,2.257-0.062,3.002c0.45,0.897,1.453,1.387,2.214,1.64c2.485,0.825,5.459,0.545,7.962-0.754
		c6.574-3.414,30.649-23.898,46.58-37.454c8.432-7.175,14.524-12.358,16.362-13.639c1.699-1.185,3.727-1.515,5.855-0.96
		c1.064,0.277,2.08,0.969,2.888,1.936c1.641-1.231,3.473-1.952,5.455-2.145c3.812-0.37,6.995,0.966,8.818,3.567
		c1.993-1.948,4.852-3.75,8.937-3.583c2.918,0.123,5.586,1.53,7.136,3.763c1.521,2.192,1.864,4.923,0.963,7.689
		c-0.754,2.312-1.6,4.612-2.417,6.836c-0.514,1.397-1.027,2.793-1.521,4.197c-0.153,0.438-0.126,0.728,0.458,1.004
		c0.271,0.128,0.773,0.369,1.888-0.398c0.097-0.066,0.197-0.126,0.303-0.179c4.029-2.013,7.188-5.461,10.692-10.019
		c0.51-0.663,1.28-1.774,2.173-3.06c3.451-4.976,9.229-13.305,14.568-16.974c1.28-0.883,2.783-1.106,3.564-1.161
		c2.495-0.18,3.939,0.655,4.944,1.996c0.851-0.556,1.688-0.96,2.362-1.285c2.241-1.082,4.95-1.135,7.624-0.15
		c2.345,0.862,4.079,2.433,5.016,4.542c1.041,2.344,1.016,5.237-0.07,7.938c-0.5,1.287-1.937,1.996-3.029,1.996
		c-4.464,0.022-8.939,0.023-13.414,0.01c-0.355,0.883-0.731,1.79-1.13,2.722c-0.513,1.204-0.555,2.264-0.123,3.15
		c0.515,1.06,1.727,1.941,3.251,2.369c3.892,0.766,7.448-0.636,12.354-2.569c2.687-1.059,5.73-2.258,9.323-3.274
		c6.871-1.941,14.827-2.074,20.271-0.34c5.896,1.878,9.483,4.303,10.967,7.412c0.014,0.029,0.027,0.058,0.041,0.087
		c0.663-0.375,1.381-0.703,2.171-0.95c2.981-0.932,6.025-0.675,8.355,0.707c0.814,0.483,1.757,1.232,2.561,2.375
		c1.142-1.161,2.429-2.051,3.889-2.692c3.933-1.727,8.622-1.042,11.153,1.621c2.724,2.866,3.251,6.293,1.569,10.188
		c-0.77,1.783-1.375,3.637-2.016,5.602c-0.393,1.202-0.785,2.404-1.217,3.592c-0.373,1.029-0.222,1.239-0.03,1.504
		c0.155,0.173,1.09,0.355,1.823-0.158c1.737-1.215,9.993-10.523,17.278-18.735c12.465-14.052,21.551-24.177,24.952-26.485
		c1.711-1.16,3.851-1.196,4.702-1.158c1.669,0.078,3.106,0.824,4.086,2.11c2.94-2.126,6.354-2.785,9.63-1.857
		c2.61,0.739,4.576,2.249,5.686,4.363c0.97,1.85,1.213,4.044,0.723,6.422c0.239,2.001,1.393,2.536,2.468,2.876
		c2.115,0.672,3.929,0.206,7.97-1.445c3.2-1.307,6.443-2.922,9.579-4.484c8.914-4.44,17.333-8.634,22.389-3.879
		c4.377,4.117,1.798,9.578,0.696,11.91c-0.145,0.305-0.271,0.562-0.345,0.76c-1.193,3.19-2.376,6.384-3.558,9.577
		c2.038-3.25,4.077-6.499,6.136-9.735c0.262-0.414,1.655-2.601,2.852-4.479c0.463-0.952,1.102-1.976,1.97-3.063
		c0.86-1.079,2.435-1.255,3.513-0.394c1.016,0.811,1.231,2.252,0.535,3.318c-0.103,0.161-0.792,1.242-1.611,2.528
		c-0.577,1.286-0.523,2.111-0.474,2.406c0.064,0.38,0.206,0.544,0.25,0.572c0.939,0.333,1.643,0.104,3.14-0.705
		c0.971-0.524,2.172-0.351,2.953,0.429c0.781,0.779,0.96,1.978,0.439,2.951c-2.225,4.154-4.277,7.956-6.177,11.472
		c-5.12,9.481-9.164,16.968-12.355,23.589c-1.187,2.461-1.024,4.873,0.434,6.452c1.389,1.504,3.629,1.862,6.004,0.969
		c5.105-2.438,14.037-9.987,19.959-14.992c2.583-2.183,4.623-3.907,5.776-4.73c2.355-1.685,5.924-1.398,7.653-0.086
		c1.606,1.223,3.205,3.5,1.706,7.415c-0.353,0.923-0.717,1.845-1.08,2.766c-0.874,2.212-1.778,4.5-2.491,6.76
		c-0.551,1.75-0.577,4.083,2.427,5.244c1.451,0.561,2.976,0.471,4.663-0.273c1.722-0.758,2.821-1.67,3.504-2.942
		c0.279-0.735,0.572-1.509,0.804-2.135c0.154-0.455,0.311-0.909,0.47-1.362c0.024-0.083,0.054-0.164,0.086-0.243
		c0.807-2.284,1.673-4.542,2.518-6.745c0.419-1.092,0.838-2.185,1.25-3.279c0.073-0.194,0.289-0.85-0.019-1.078
		c-0.323-0.237-0.866-0.253-1.317-0.183c-0.429,0.761-1.244,1.274-2.18,1.274c-1.35,0-2.449-1.069-2.498-2.406
		c-0.154-1.454,0.454-2.238,0.992-2.649c2.024-1.466,5.531-1.865,7.977-0.055c2.045,1.514,2.722,4.204,1.725,6.856
		c-0.415,1.105-0.838,2.208-1.261,3.311c-0.84,2.189-1.701,4.435-2.494,6.682c-0.084,0.298-0.243,0.759-0.532,1.542
		c-0.107,0.318-0.213,0.637-0.316,0.954c-0.018,0.053-0.034,0.105-0.053,0.158c2.732-3.069,6.021-6.768,9.596-10.789
		c5.593-6.292,10.882-12.237,15.869-17.837C790.841,232.855,630.145,72.534,432,72.534c-197.083,0-357.119,158.605-359.438,355.137
		C86.228,412.298,96.092,401.41,98.207,399.95z"/>
	<path fill="#FFFFFF" d="M779.326,452.015c-12.422,13.973-16.139,18.152-17.465,19.498c-1.586,4.849-6.637,19.339-8.703,24.392
		c-2.538,5.576-7.652,8.216-11.611,8.399c-0.189,0.009-0.376,0.014-0.56,0.014c-4.323,0-7.188-2.374-8.448-4.667
		c-1.435-2.598-1.858-7.738,1.698-11.023c2.506-2.202,6.4-5.503,10.524-8.996c5.215-4.418,10.593-8.975,12.754-10.971
		c0.207-0.69,0.374-1.274,0.524-1.8c-2.462,0.794-4.866,0.749-7.166-0.141c-4.865-1.882-6.981-6.361-5.393-11.411
		c0.767-2.43,1.703-4.801,2.609-7.094c0.356-0.903,0.714-1.808,1.061-2.715c0.475-1.24,0.25-1.411-0.062-1.648
		c-0.267-0.118-1.305-0.124-1.721,0.174c-0.988,0.705-3.059,2.455-5.456,4.481c-6.521,5.511-15.452,13.059-21.139,15.735
		c-0.053,0.025-0.106,0.048-0.161,0.069c-4.324,1.674-8.758,0.83-11.563-2.208c-2.86-3.097-3.345-7.701-1.265-12.017
		c3.241-6.724,7.31-14.257,12.46-23.793c1.152-2.133,2.361-4.372,3.631-6.73c-0.412-0.071-0.838-0.181-1.278-0.337
		c-0.804-0.285-1.51-0.769-2.078-1.407c-1.87,2.952-3.725,5.91-5.579,8.869l-2.84,4.524c-1.539,2.458-4.157,3.443-6.219,2.338
		c-1.205-0.646-3.032-2.245-1.75-5.707l1.791-4.839c1.353-3.656,2.705-7.312,4.07-10.962c0.111-0.297,0.291-0.688,0.507-1.146
		c1.349-2.854,1.846-4.772,0.399-6.133c-2.519-2.37-9.744,1.231-16.733,4.713c-3.218,1.603-6.546,3.261-9.919,4.637
		c-4.188,1.71-7.454,2.825-11.364,1.584c-1.24-0.393-2.232-0.931-3.023-1.561c-0.4,1.072-0.804,2.167-1.167,3.244
		c-1.814,5.386-8.093,8.627-12.586,8.174c-3.042-0.309-5.646-1.869-7.145-4.28c-1.513-2.435-1.737-5.399-0.635-8.348
		c0.535-1.431,1.095-2.854,1.654-4.276c0.71-1.804,1.443-3.668,2.104-5.505c0.068-0.189,0.041-0.662-0.153-0.952
		c-0.069-0.104-0.132-0.172-0.366-0.183c-0.712-0.026-1.408,0.127-1.666,0.301c-3.145,2.134-14.718,15.181-24.018,25.665
		c-9.878,11.136-16.04,18.037-18.153,19.515c-2.831,1.979-6.917,1.509-8.74-1.01c-1.696-2.349-1.165-4.628-0.618-6.139
		c0.413-1.137,0.788-2.288,1.163-3.438c0.648-1.985,1.318-4.038,2.18-6.033c1.017-2.354,0.494-3.606-0.604-4.761
		c-1.077-1.132-3.555-1.35-5.52-0.487c-1.426,0.626-2.567,1.643-3.594,3.201c-0.241,0.363-0.493,0.649-0.695,0.879l-0.015,0.016
		c-0.143,0.9-0.433,1.744-0.688,2.486l-0.098,0.284c-0.822,2.426-1.718,4.856-2.584,7.207l-0.922,2.509
		c-0.348,0.951-0.148,1.142-0.018,1.268c0.226,0.217,0.5,0.479,1.364,0.108c0.213-0.092,0.421-0.202,0.63-0.312l0.412-0.211
		c1.236-0.615,2.738-0.114,3.354,1.121c0.616,1.236,0.114,2.737-1.121,3.354l-0.34,0.174c-0.316,0.164-0.634,0.327-0.96,0.468
		c-2.489,1.066-4.968,0.668-6.799-1.094c-1.001-0.956-2.497-3.092-1.22-6.591l0.928-2.523c0.854-2.32,1.739-4.719,2.54-7.083
		l0.104-0.303c0.215-0.625,0.574-1.671,0.5-2.042c-0.272-1.367-0.874-2.335-1.788-2.877c-1.096-0.649-2.707-0.739-4.312-0.236
		c-1.316,0.412-2.403,1.293-3.608,2.338c-0.017,0.042-0.032,0.082-0.046,0.118c-1.898,4.864-3.844,9.85-5.703,14.788
		c-0.074,0.196-0.137,0.468-0.016,0.654c0.104,0.161,0.393,0.345,0.888,0.376c0.397,0.025,0.764-0.098,1.447-0.463
		c1.216-0.651,2.731-0.193,3.383,1.025c0.651,1.217,0.192,2.732-1.025,3.383c-1.078,0.578-2.413,1.15-4.117,1.045
		c-2.025-0.126-3.766-1.092-4.773-2.65c-0.964-1.489-1.133-3.36-0.466-5.133c1.87-4.966,3.821-9.965,5.708-14.801
		c0.32-0.822,0.538-1.541,0.11-2.437c-0.476-0.996-2.143-2.943-7.972-4.801c-3.748-1.193-10.579-1.538-17.394,0.388
		c-3.353,0.948-6.273,2.099-8.851,3.114c-5.305,2.091-9.886,3.897-15.264,2.801c-0.051-0.01-0.101-0.022-0.151-0.036
		c-2.979-0.803-5.356-2.636-6.521-5.031c-0.751-1.544-1.356-4.064,0.021-7.297c1.413-3.31,2.529-6.253,3.414-9.002
		c0.099-0.306,0.21-0.596,0.333-0.872c-0.271-0.597-0.435-0.845-0.521-0.947c-0.082-0.011-0.258-0.021-0.578,0.003
		c-0.483,0.034-0.909,0.172-1.082,0.291c-4.588,3.153-10.039,11.011-13.295,15.706c-0.969,1.396-1.732,2.497-2.316,3.257
		c-3.363,4.375-7.176,8.775-12.271,11.369c-2.814,1.869-5.199,1.418-6.717,0.7c-2.847-1.347-4.067-4.232-3.035-7.178
		c0.501-1.428,1.023-2.848,1.545-4.268c0.803-2.181,1.632-4.437,2.356-6.66c0.411-1.261,0.302-2.399-0.316-3.289
		c-0.663-0.956-1.875-1.561-3.24-1.619c-2.472-0.107-4.361,0.925-6.479,3.56c-0.593,0.738-0.858,1.722-1.165,2.861
		c-0.252,0.935-0.538,1.994-1.053,3.04c-0.721,1.462-1.24,3.068-1.791,4.768c-0.311,0.957-0.621,1.914-0.968,2.854
		c-0.354,0.954-0.21,1.094-0.009,1.288c0.24,0.234,1.035,0.385,1.555,0.132c0.089-0.043,0.175-0.104,0.264-0.16l0.266-0.166
		c1.179-0.714,2.717-0.337,3.434,0.845c0.714,1.182,0.336,2.719-0.846,3.433l-0.175,0.109c-0.245,0.155-0.493,0.307-0.752,0.434
		c-2.377,1.152-5.414,0.719-7.225-1.037c-1.784-1.728-2.188-3.954-1.201-6.615c0.322-0.874,0.611-1.767,0.9-2.66
		c0.581-1.794,1.183-3.649,2.062-5.435c0.299-0.609,0.499-1.35,0.711-2.134c0.145-0.538,0.297-1.102,0.492-1.677
		c-0.129-0.35-0.257-0.7-0.375-1.052c-0.811-2.4-3.296-2.529-4.704-2.392c-1.254,0.122-2.371,0.632-3.417,1.559
		c-0.408,0.361-0.825,0.657-1.204,0.92c-0.003,0.006-0.005,0.013-0.008,0.02l-0.642,1.662c-1.726,4.471-3.51,9.094-5.181,13.661
		c-0.106,0.292-0.084,0.435-0.075,0.451c0.021,0.037,0.183,0.196,0.604,0.29c0.972,0.216,1.195-0.016,1.277-0.104
		c0.947-1.006,2.528-1.053,3.534-0.106c1.005,0.946,1.053,2.529,0.106,3.534c-1.029,1.092-2.909,2.25-6.011,1.557
		c-1.754-0.395-3.139-1.379-3.9-2.774c-0.734-1.345-0.816-2.966-0.231-4.565c1.686-4.608,3.478-9.252,5.211-13.744l0.529-1.37
		c-0.121-0.333-0.495-0.827-0.731-0.936c-0.874-0.223-1.383,0.028-1.686,0.239c-1.641,1.144-8.286,6.798-15.981,13.346
		c-17.065,14.521-40.438,34.408-47.517,38.083c-3.731,1.937-8.046,2.322-11.84,1.062c-2.378-0.788-4.145-2.222-5.109-4.145
		c-0.673-1.342-1.257-3.592-0.246-6.717c0.664-2.723,1.603-5.76,2.436-8.378c0.308-0.966,0.691-1.858,1.149-2.678
		c-0.729-1.402-1.289-1.257-1.923-1.094c-1.557,0.402-6.991,3.465-7.901,4.074c-0.057,0.038-0.142,0.092-0.201,0.125l-2.042,1.139
		c-7.729,4.31-11.609,6.473-15.257,7.978c-6.662,2.753-10.606,4.24-14.221,2.788c-2.229-0.891-3.816-2.545-4.587-4.783
		c-1.235-3.586-0.279-8.499,2.622-13.479l23.749-40.782c-6.833,4.517-13.595,8.407-20.687,12.486
		c-2.49,1.432-5.006,2.879-7.558,4.374c-4.685,2.746-8.299,4.524-12.904,5.485c-2.796,0.586-6.495,1.085-10.275-0.282
		c-2.696-0.975-4.634-2.604-5.604-4.714c-0.946-2.055-0.937-4.488,0.026-7.034c0.617-1.634,1.223-3.273,1.829-4.913
		c0.657-1.776,1.313-3.553,1.984-5.324c0.03-0.195-0.27-0.712-0.573-0.782c-0.699-0.162-1.226-0.061-1.817,0.35
		c-2.121,1.474-16.321,17.501-27.731,30.38c-17.519,19.775-28.361,31.925-31.208,33.917c-1.9,1.33-4.005,1.843-5.936,1.447
		c-1.288-0.264-2.383-0.924-3.136-1.88c-0.748,0.562-1.583,1.089-2.56,1.416c-2.661,0.888-5.146,0.812-7.188-0.214
		c-1.857-0.936-3.223-2.606-3.951-4.832c-0.386-1.173-0.354-2.311-0.326-3.315c0.01-0.334,0.021-0.669,0.007-0.995
		c-0.057-1.38,1.015-2.544,2.395-2.602c1.355-0.036,2.543,1.016,2.601,2.395c0.018,0.44,0.007,0.892-0.005,1.342
		c-0.018,0.624-0.036,1.27,0.079,1.618c0.311,0.95,0.797,1.596,1.448,1.923c0.814,0.41,2.006,0.388,3.355-0.062
		c0.601-0.201,1.311-0.789,2.063-1.412c0.256-0.212,0.513-0.424,0.772-0.628c0.085-0.316,0.203-0.642,0.359-0.977
		c0.521-1.11,0.575-2.257,0.145-3.07c-0.374-0.707-1.107-1.153-2.181-1.325c-2.502-0.404-4.519-1.848-5.533-3.962
		c-0.924-1.926-0.911-4.138,0.018-6.33c-0.585-0.82-1.064-0.686-1.609-0.536c-0.084,0.024-0.315,0.104-0.665,0.342
		c-4.861,3.716-8.961,8.078-13.302,12.696c-3.967,4.22-8.068,8.584-12.996,12.69c-6.783,6.095-15.925,5.699-19.902,1.525
		c-0.069-0.072-0.133-0.148-0.192-0.229c-0.113-0.15-0.226-0.294-0.337-0.437c-0.039-0.05-0.079-0.101-0.119-0.151
		c-1.183,0.777-2.589,1.381-4.197,1.791c-4.016,1.021-7.458,0.018-9.958-2.906c-2.107-2.464-2.512-5.593-1.203-9.301
		c1.29-3.66,2.412-6.669,3.533-9.466c0.292-0.73,0.241-1.399-0.131-1.705c-0.4-0.33-1.195-0.205-2.045,0.315
		c-1.768,1.469-4.589,4.134-7.844,7.21c-7.366,6.961-15.715,14.85-20.199,16.959c-4.436,2.083-9.291,1.845-11.604,0.561
		c-4.204-2.332-6.104-6.969-4.624-11.274c1.309-3.965,16.845-45.096,18.258-48.334c0.651-1.49,0.551-3.091-0.261-4.18
		c-0.852-1.141-2.397-1.635-4.359-1.396c-1.763,0.216-3.311,1.229-5.022,3.283c-0.66,0.792-0.949,1.842-1.283,3.059
		c-0.239,0.871-0.486,1.771-0.896,2.697c-0.614,1.391-1.119,2.833-1.654,4.361c-0.365,1.045-0.731,2.09-1.133,3.121
		c-0.567,1.454-0.445,1.566-0.04,1.939c0.28,0.257,1.079,0.11,1.944-0.359c1.215-0.657,2.732-0.205,3.389,1.007
		c0.658,1.214,0.207,2.731-1.008,3.389c-2.884,1.564-5.768,1.429-7.71-0.358c-2.679-2.466-2.127-5.142-1.233-7.434
		c0.38-0.976,0.726-1.966,1.072-2.956c0.543-1.553,1.104-3.159,1.799-4.73c0.26-0.588,0.448-1.275,0.648-2.002
		c0.118-0.429,0.24-0.875,0.384-1.328c-0.149-0.254-0.273-0.553-0.342-0.905c-0.226-1.169-0.768-1.92-1.705-2.37
		c-1.641-0.786-3.993-0.434-5.373,0.295c-2.239,1.185-3.165,3.393-4.228,6.384c-1.095,3.082-2.406,6.732-3.833,10.441
		c-0.131,0.34-0.078,0.629,0.016,0.786c0.07,0.118,0.165,0.174,0.325,0.195c0.332,0.043,0.914,0.12,1.176,0.082
		c0.712-1.153,2.237-1.557,3.41-0.866c1.19,0.7,1.605,2.206,0.906,3.396c-1.715,2.917-4.695,2.532-6.128,2.347
		c-1.673-0.213-3.125-1.158-3.981-2.591c-0.902-1.511-1.048-3.435-0.39-5.145c1.406-3.655,2.704-7.268,3.788-10.32
		c0.459-1.291,0.993-2.792,1.8-4.253c-0.018-0.062-0.036-0.125-0.053-0.187c-0.075-0.267-0.185-0.656-0.269-0.824
		c-0.925-0.428-1.515-0.16-1.926,0.126c-2.032,1.445-16.317,17.419-28.494,31.146C74.278,632.258,234.544,791.466,432,791.466
		c196.377,0,355.968-157.473,359.402-353.03C786.949,443.44,782.831,448.072,779.326,452.015z"/>
	<path fill="#FFFFFF" d="M736.918,497.236c0.591,1.075,2.053,2.174,4.397,2.073c2.361-0.109,5.639-1.843,7.254-5.389
		c1.271-3.107,3.75-10.029,5.785-15.875c-1.955,1.668-4.135,3.515-6.36,5.399c-4.106,3.479-7.985,6.766-10.41,8.896
		C735.898,493.899,736.573,496.611,736.918,497.236z"/>
	<path fill="#FFFFFF" d="M388.375,445.347c0.414-2.712-0.402-3.604-1.289-4.276c-1.788-1.353-4.239-1.04-5.875-0.126
		c-1.635,0.913-2.708,2.304-3.376,4.374c0.822-0.001,1.644-0.003,2.465-0.004c0.909-0.002,1.828-0.005,2.752-0.005
		C384.816,445.31,386.6,445.317,388.375,445.347z"/>
	<path fill="#FFFFFF" d="M386.657,366.973c0.25-1.79-0.606-4.407-3.261-4.908c-1.665-0.312-4.188-0.784-7.864,6.168
		c-1.859,3.979-4.675,9.507-7.009,13.997c5.105-3.127,11.557-7.28,14.699-10.021C385.284,370.411,386.442,369.043,386.657,366.973z"
		/>
</g>
</svg>
