<?xml version="1.0" encoding="iso-8859-1"?>
<!-- Generator: Adobe Illustrator 23.0.4, SVG Export Plug-In . SVG Version: 6.00 Build 0)  -->
<svg version="1.1" id="Layer_1" xmlns="http://www.w3.org/2000/svg" xmlns:xlink="http://www.w3.org/1999/xlink" x="0px" y="0px"
	 width="864px" height="864px" viewBox="0 0 864 864" enable-background="new 0 0 864 864" xml:space="preserve">
<path fill="#FFFFFF" d="M600.081,429.95 M134.167,501.267c-0.001,0.006-0.001,0.011-0.002,0.017
	c-17.828-17.948-28.847-42.673-28.847-69.973c0-33.732,16.822-63.53,42.528-81.471c0,0.002,0,0.003-0.001,0.005l0.092-0.056
	c5.38-42.751,12.216-55.937,28.906-55.937c0.608,0,1.209,0.033,1.801,0.094c9.99,0.807,17.114,8.485,21.184,22.871
	c1.163,4.108,2.261,9.162,3.316,15.236c0.04-0.001,0.079-0.004,0.119-0.004c0.434-0.006,0.867-0.016,1.302-0.016
	c7.588,0,14.976,0.855,22.076,2.469l0.107,0.026c1.184-7.202,2.419-13.053,3.736-17.71c4.308-15.23,12.035-22.952,22.965-22.952
	c10.931,0,18.658,7.722,22.967,22.95c1.991,7.036,3.795,16.791,5.516,29.824c1.053,7.973,2.033,16.896,2.964,26.372
	c0.025,0.035,0.053,0.068,0.078,0.102c11.849,16.353,18.84,36.457,18.84,58.197c0,15.792-3.692,30.72-10.251,43.976
	c0.871,9.632,1.776,18.814,2.733,27.133c2.019,17.547,3.835,27.228,5.118,32.487h57.277c1.282-5.258,3.098-14.935,5.117-32.487
	c0.043-0.377,0.086-0.767,0.129-1.147c-17.822-17.947-28.835-42.667-28.835-69.962c0-33.752,16.842-63.565,42.574-81.503
	c0.162-1.302,0.326-2.592,0.492-3.849c1.72-13.032,3.524-22.788,5.513-29.823c4.308-15.23,12.035-22.952,22.965-22.952
	s18.658,7.722,22.967,22.951c1.206,4.263,2.343,9.531,3.435,15.914c0.434-0.006,0.867-0.016,1.302-0.016
	c7.588,0,14.976,0.855,22.076,2.469c1.216-7.503,2.486-13.568,3.844-18.366c4.308-15.229,12.034-22.951,22.965-22.951
	c10.931,0,18.658,7.722,22.967,22.95c1.99,7.036,3.795,16.791,5.515,29.824c1.082,8.194,2.088,17.386,3.042,27.157
	c11.849,16.352,18.84,36.456,18.84,58.197c0,15.792-3.692,30.72-10.251,43.976c-0.015,0.029-0.029,0.059-0.044,0.088l0.044,0.594
	c0.871,9.632,1.777,18.813,2.734,27.132c2.019,17.547,3.835,27.229,5.117,32.488h57.277c1.282-5.258,3.097-14.935,5.116-32.486
	c0.043-0.377,0.086-0.768,0.129-1.148c0.024-0.208,0.047-0.416,0.071-0.625l-0.071-0.057
	c-17.821-17.947-28.835-42.667-28.835-69.961c0-33.752,16.842-63.565,42.574-81.503l0.093-0.061
	c0.132-1.049,0.264-2.088,0.399-3.105c1.72-13.033,3.524-22.788,5.514-29.824c4.307-15.23,12.034-22.952,22.965-22.952
	s18.658,7.722,22.966,22.951c1.163,4.108,2.261,9.162,3.316,15.236c0.04-0.001,0.079-0.004,0.119-0.004
	c0.434-0.006,0.867-0.016,1.302-0.016c7.588,0,14.976,0.855,22.076,2.469l0.109,0.012c1.183-7.195,2.418-13.041,3.734-17.695
	c4.062-14.363,11.169-22.041,21.134-22.869c0.597-0.062,1.202-0.097,1.815-0.097c19.424,0,25.495,17.816,31.512,79.227
	c0.025,0.034,0.052,0.067,0.077,0.102c11.82,16.341,18.792,36.42,18.792,58.132c0,15.789-3.691,30.714-10.247,43.968v0.682
	c2.243,24.59,4.873,48.096,7.721,59.614h15.881c2.804-9.324,5.221-18.777,7.292-28.403c2.158-10.317,3.925-20.763,5.177-31.381
	c0.086-0.388,0.131-0.778,0.173-1.208c1.639-13.986,2.503-28.188,2.503-42.604c0-14.416-0.864-28.618-2.503-42.604
	c-0.042-0.388-0.086-0.776-0.173-1.166c-1.252-10.618-3.019-21.108-5.221-31.423C749.466,194.095,604.994,72.026,432,72.026
	c-172.952,0-317.424,122.07-351.987,284.76c-2.202,10.315-3.927,20.805-5.221,31.423c-0.044,0.39-0.089,0.778-0.131,1.166
	c-1.684,13.986-2.545,28.188-2.545,42.604c0,14.416,0.862,28.618,2.545,42.604c0.042,0.43,0.086,0.82,0.131,1.208
	c1.294,10.618,3.019,21.064,5.221,31.381c2.027,9.626,4.444,19.079,7.248,28.403h41.772c1.811-7.292,3.536-19.414,5.133-33.608
	c0.001-0.006,0.001-0.011,0.002-0.017c0.021-0.195,0.043-0.39,0.064-0.585L134.167,501.267z M492.438,511.813
	c-6.14,4.441-12.806,8.197-19.889,11.154c-1.457,9.932-2.982,17.671-4.637,23.52c-4.307,15.23-12.034,22.952-22.965,22.952
	s-18.658-7.721-22.966-22.95c-1.286-4.544-2.493-10.23-3.651-17.193c-7.794-1.266-15.284-3.435-22.357-6.404
	c-1.459,9.967-2.988,17.731-4.647,23.595c-4.308,15.23-12.035,22.952-22.965,22.952h-76.607c-10.931,0-18.658-7.721-22.967-22.95
	c-1.99-7.036-3.795-16.791-5.515-29.823c-0.209-1.579-0.414-3.203-0.617-4.853c-6.109,4.419-12.74,8.158-19.785,11.108
	c-0.035,0.24-0.069,0.49-0.104,0.727c-1.456,9.932-2.982,17.671-4.637,23.521c-4.308,15.23-12.035,22.952-22.965,22.952
	s-18.658-7.721-22.967-22.95c-1.285-4.544-2.522-10.689-3.68-17.652l0,0c-0.029-0.005,0.029,0.005,0,0
	c-7.714-1.26-15.187-3.643-22.194-6.573c-0.031,0.208-0.061,0.421-0.092,0.628c-0.001,0.005-0.002,0.011-0.002,0.016
	c-5.223,35.297-12.256,46.517-27.658,46.517H99.604c3.58,8.719,7.552,17.266,11.822,25.64
	C171.019,712.248,292.189,791.974,432,791.974s260.981-79.727,320.574-196.228c4.271-8.374,8.241-16.92,11.822-25.64h-13.074
	c-16.915,0-23.733-13.51-29.127-57.581c0-0.003-0.001-0.007-0.001-0.01v-0.682c-0.023,0.016-0.045,0.033-0.068,0.049
	c-6.083,4.388-12.681,8.103-19.688,11.039c-0.035,0.24-0.069,0.49-0.104,0.727c-1.456,9.932-2.982,17.671-4.637,23.521
	c-4.307,15.229-12.034,22.951-22.965,22.951s-18.658-7.721-22.966-22.95c-1.286-4.544-2.493-10.23-3.651-17.193v-0.682
	c-7.76-1.26-15.219-3.417-22.266-6.367c-0.031,0.212-0.061,0.434-0.092,0.645c-1.459,9.968-2.988,17.731-4.647,23.596
	c-4.308,15.229-12.034,22.951-22.965,22.951h-76.607c-10.931,0-18.658-7.721-22.967-22.95c-1.99-7.036-3.795-16.791-5.515-29.824
	c-0.209-1.579-0.414-3.202-0.617-4.852"/>
<g opacity="0.5">
	<path fill="#FFFFFF" d="M744.593,374.209c-0.001-0.009-0.002-0.018-0.003-0.027c-6.041-62.026-12.082-79.984-31.586-79.984
		c-0.613,0-1.218,0.034-1.815,0.097c-9.965,0.828-17.071,8.506-21.134,22.869c-1.357,4.797-2.627,10.862-3.843,18.365
		c-0.567,3.501-1.123,7.312-1.671,11.458c-3.05,23.108-5.502,54.058-7.872,83.989c-2.01,25.373-4.087,51.609-6.488,72.472
		c-1.557,13.538-2.993,22.391-4.157,28.147c-0.628,0.012-1.257,0.024-1.888,0.024c-5.456,0-10.806-0.447-16.022-1.294
		c1.158,6.963,2.365,12.649,3.651,17.193c4.308,15.229,12.035,22.95,22.966,22.95s18.658-7.722,22.965-22.951
		c1.655-5.851,3.181-13.59,4.637-23.521c0.295-2.012,0.587-4.107,0.877-6.302c3.05-23.109,5.501-54.059,7.872-83.99
		c2.01-25.372,4.087-51.608,6.488-72.472c0.498-4.334,0.984-8.187,1.453-11.613C728.948,356.222,737.615,364.563,744.593,374.209z"
		/>
	<path fill="#FFFFFF" d="M760.858,535.922c-2.847-11.518-5.477-35.024-7.721-59.614c-7.206,14.568-17.88,27.113-30.944,36.555
		c0,0.003,0.001,0.007,0.001,0.01c5.394,44.071,12.212,57.581,29.127,57.581h13.074c1.728-4.057,3.323-8.159,4.878-12.302
		c2.718-7.295,5.221-14.72,7.465-22.229H760.858z"/>
	<path fill="#FFFFFF" d="M659.399,317.164c-4.308-15.229-12.035-22.951-22.966-22.951s-18.658,7.722-22.965,22.952
		c-1.99,7.035-3.794,16.791-5.514,29.824c-0.166,1.257-0.329,2.547-0.492,3.848c-2.824,22.634-5.139,51.839-7.381,80.142
		c-1.973,24.914-4.013,50.648-6.359,71.323c-0.043,0.38-0.086,0.772-0.129,1.148c-2.019,17.551-3.833,27.229-5.116,32.486h-57.277
		c-1.282-5.259-3.098-14.941-5.117-32.488c-0.958-8.319-1.863-17.5-2.734-27.132c-7.201,14.554-17.862,27.087-30.911,36.525
		c0.203,1.65,0.408,3.273,0.617,4.852c1.72,13.033,3.525,22.788,5.515,29.824c4.309,15.229,12.036,22.95,22.967,22.95h76.607
		c10.931,0,18.657-7.722,22.965-22.951c1.658-5.865,3.187-13.628,4.647-23.596c0.291-1.99,0.58-4.059,0.866-6.227
		c3.05-23.108,5.501-54.057,7.872-83.987c2.01-25.373,4.087-51.61,6.488-72.474c1.397-12.149,2.697-20.526,3.791-26.277
		c5.852-1.158,11.889-1.799,18.061-1.878C661.742,326.695,660.605,321.426,659.399,317.164z"/>
	<path fill="#FFFFFF" d="M514.761,373.462c-0.954-9.771-1.96-18.963-3.042-27.157c-1.72-13.032-3.525-22.788-5.515-29.824
		c-4.309-15.228-12.036-22.95-22.967-22.95c-10.931,0-18.657,7.722-22.965,22.951c-1.357,4.797-2.627,10.862-3.844,18.366
		c-0.567,3.5-1.123,7.312-1.67,11.457c-3.05,23.108-5.501,54.058-7.872,83.988c-2.01,25.373-4.087,51.61-6.488,72.473
		c-1.558,13.539-2.994,22.392-4.158,28.148c-0.628,0.012-1.257,0.024-1.888,0.024c-5.456,0-10.806-0.447-16.022-1.294
		c1.158,6.963,2.365,12.648,3.651,17.193c4.308,15.229,12.035,22.95,22.966,22.95s18.658-7.722,22.965-22.952
		c1.655-5.85,3.181-13.588,4.637-23.52c0.295-2.012,0.588-4.107,0.878-6.303c3.05-23.109,5.501-54.06,7.872-83.991
		c2.01-25.372,4.087-51.608,6.488-72.471c0.498-4.333,0.984-8.186,1.453-11.612C499.142,355.525,507.792,363.844,514.761,373.462z"
		/>
	<path fill="#FFFFFF" d="M429.614,316.482c-4.309-15.229-12.036-22.951-22.967-22.951s-18.657,7.722-22.965,22.952
		c-1.99,7.035-3.793,16.791-5.513,29.823c-0.166,1.257-0.329,2.547-0.492,3.849c-2.824,22.633-5.139,51.837-7.38,80.14
		c-1.973,24.914-4.013,50.649-6.358,71.325c-0.043,0.38-0.086,0.771-0.129,1.147c-2.019,17.553-3.834,27.23-5.117,32.487h-57.277
		c-1.283-5.259-3.099-14.94-5.118-32.487c-0.957-8.319-1.863-17.501-2.733-27.133c-7.201,14.554-17.862,27.088-30.912,36.526
		c0.203,1.65,0.408,3.273,0.617,4.853c1.721,13.032,3.525,22.787,5.515,29.823c4.309,15.229,12.036,22.95,22.967,22.95h76.607
		c10.931,0,18.657-7.722,22.965-22.952c1.659-5.864,3.188-13.628,4.647-23.595c0.291-1.99,0.58-4.059,0.866-6.227
		c3.051-23.109,5.502-54.059,7.872-83.99c2.01-25.372,4.087-51.608,6.487-72.472c1.397-12.149,2.697-20.525,3.791-26.276
		c5.852-1.158,11.889-1.799,18.061-1.878C431.958,326.013,430.82,320.745,429.614,316.482z"/>
	<path fill="#FFFFFF" d="M284.976,374.144c-0.954-9.77-1.96-18.962-3.042-27.156c-1.721-13.033-3.525-22.788-5.516-29.824
		c-4.309-15.228-12.036-22.95-22.967-22.95c-10.931,0-18.657,7.722-22.965,22.952c-1.357,4.797-2.627,10.862-3.843,18.365
		c-0.567,3.501-1.123,7.312-1.671,11.458c-3.05,23.108-5.502,54.058-7.872,83.988c-2.01,25.373-4.087,51.609-6.488,72.473
		c-1.557,13.538-2.994,22.391-4.158,28.147c-0.628,0.012-1.257,0.024-1.888,0.024c-5.456,0-10.806-0.447-16.022-1.294
		c1.158,6.962,2.365,12.649,3.651,17.193c4.309,15.229,12.036,22.95,22.967,22.95s18.657-7.722,22.965-22.952
		c1.655-5.85,3.181-13.589,4.637-23.52c0.295-2.012,0.588-4.107,0.877-6.303c3.05-23.108,5.502-54.059,7.872-83.99
		c2.01-25.372,4.087-51.608,6.488-72.471c0.498-4.333,0.985-8.186,1.453-11.612C269.357,356.207,278.007,364.525,284.976,374.144z"
		/>
	<path fill="#FFFFFF" d="M199.83,317.164c-4.07-14.386-11.195-22.063-21.184-22.871c-0.592-0.061-1.192-0.094-1.801-0.094
		c-16.786,0-23.604,13.336-28.998,56.671c0,0.002,0,0.003-0.001,0.005c-2.459,19.856-4.661,46.015-7.337,80.114
		c-1.681,21.496-3.883,48.948-6.342,71.309c-0.001,0.006-0.001,0.011-0.002,0.017c-1.597,14.194-3.321,26.317-5.133,33.608H87.261
		c2.244,7.51,4.747,14.935,7.465,22.229c1.553,4.144,3.15,8.245,4.878,12.302h38.965c15.402,0,22.435-11.22,27.658-46.517
		c0.001-0.005,0.002-0.011,0.002-0.016c3.106-20.849,5.565-50.028,8.717-90.214c2.501-31.811,6.041-76.531,10.183-98.717
		c0.001-0.007,0.003-0.014,0.004-0.021c5.874-1.167,11.934-1.812,18.132-1.892C202.173,326.695,201.036,321.426,199.83,317.164z"/>
</g>
<g>
	<path d="M565.019,431.43c0,27.295,11.014,52.014,28.835,69.961c2.346-20.674,4.385-46.409,6.359-71.323
		c2.242-28.303,4.556-57.508,7.381-80.142C581.862,367.864,565.019,397.677,565.019,431.43z"/>
	<path d="M744.725,373.298c-6.977-9.646-15.644-17.987-25.569-24.59c-0.469,3.426-0.955,7.279-1.453,11.613
		c-2.401,20.863-4.478,47.1-6.488,72.472c-2.371,29.931-4.822,60.88-7.872,83.99c-0.29,2.195-0.582,4.29-0.877,6.302
		c7.072-2.953,13.729-6.701,19.86-11.133c13.065-9.442,23.738-21.987,30.944-36.555c6.556-13.254,10.247-28.178,10.247-43.967
		C763.517,409.719,756.545,389.639,744.725,373.298z"/>
	<path d="M662.966,332.167c-6.173,0.08-12.209,0.72-18.061,1.878c-1.093,5.751-2.393,14.128-3.791,26.277
		c-2.401,20.864-4.478,47.101-6.488,72.474c-2.371,29.93-4.822,60.879-7.872,83.987c-0.286,2.168-0.575,4.238-0.866,6.227
		c7.073,2.97,14.564,5.139,22.358,6.404c5.216,0.847,10.567,1.294,16.022,1.294c0.631,0,1.26-0.012,1.888-0.024
		c1.164-5.755,2.6-14.608,4.157-28.147c2.401-20.863,4.478-47.1,6.488-72.472c2.371-29.931,4.822-60.88,7.872-83.989
		c0.547-4.146,1.103-7.958,1.671-11.458c-7.1-1.613-14.488-2.469-22.076-2.469C663.833,332.151,663.4,332.161,662.966,332.167z"/>
	<path d="M335.235,431.43c0,27.295,11.014,52.015,28.835,69.961c2.345-20.675,4.385-46.41,6.358-71.325
		c2.242-28.303,4.556-57.507,7.38-80.14C352.077,367.865,335.235,397.678,335.235,431.43z"/>
	<path d="M489.371,348.709c-0.469,3.426-0.955,7.278-1.453,11.612c-2.4,20.863-4.478,47.099-6.488,72.471
		c-2.371,29.931-4.822,60.881-7.872,83.991c-0.29,2.196-0.583,4.291-0.878,6.303c7.084-2.957,13.75-6.713,19.889-11.154
		c13.049-9.438,23.71-21.971,30.911-36.525c6.559-13.256,10.251-28.184,10.251-43.976c0-21.74-6.991-41.844-18.84-58.197
		C507.924,363.615,499.274,355.296,489.371,348.709z"/>
	<path d="M433.182,332.167c-6.173,0.08-12.21,0.72-18.061,1.878c-1.093,5.751-2.393,14.128-3.791,26.276
		c-2.4,20.863-4.478,47.1-6.487,72.472c-2.371,29.931-4.822,60.88-7.872,83.99c-0.286,2.168-0.575,4.238-0.866,6.227
		c7.073,2.97,14.563,5.139,22.357,6.404c5.216,0.847,10.567,1.294,16.023,1.294c0.631,0,1.259-0.012,1.888-0.024
		c1.164-5.755,2.6-14.609,4.158-28.148c2.401-20.863,4.478-47.101,6.488-72.473c2.371-29.93,4.822-60.88,7.872-83.988
		c0.547-4.146,1.103-7.957,1.67-11.457c-7.1-1.613-14.488-2.469-22.076-2.469C434.048,332.151,433.616,332.161,433.182,332.167z"/>
	<path d="M105.451,431.43c0,27.301,11.019,52.025,28.847,69.973c0.001-0.006,0.001-0.011,0.002-0.017
		c2.459-22.36,4.661-49.812,6.342-71.309c2.676-34.1,4.878-60.258,7.337-80.114c0-0.002,0-0.003,0.001-0.005
		C122.273,367.9,105.451,397.698,105.451,431.43z"/>
	<path d="M259.587,348.709c-0.469,3.426-0.955,7.279-1.453,11.612c-2.4,20.863-4.478,47.099-6.488,72.471
		c-2.371,29.931-4.822,60.881-7.872,83.99c-0.29,2.196-0.582,4.291-0.877,6.303c7.083-2.957,13.749-6.713,19.889-11.154
		c13.049-9.438,23.711-21.972,30.912-36.526c6.559-13.256,10.251-28.183,10.251-43.976c0-21.74-6.991-41.844-18.84-58.197
		C278.139,363.615,269.489,355.297,259.587,348.709z"/>
	<path d="M203.397,332.167c-6.197,0.08-12.258,0.725-18.132,1.892c-0.001,0.007-0.003,0.014-0.004,0.021
		c-4.142,22.185-7.682,66.906-10.183,98.717c-3.152,40.187-5.611,69.365-8.717,90.214c-0.001,0.005-0.002,0.011-0.002,0.016
		c7.061,2.961,14.538,5.125,22.318,6.388c5.216,0.847,10.567,1.294,16.022,1.294c0.631,0,1.26-0.012,1.888-0.024
		c1.164-5.755,2.6-14.609,4.158-28.147c2.4-20.864,4.478-47.101,6.488-72.473c2.371-29.931,4.822-60.88,7.872-83.988
		c0.547-4.146,1.103-7.957,1.671-11.458c-7.1-1.613-14.488-2.469-22.076-2.469C204.264,332.151,203.831,332.161,203.397,332.167z"/>
</g>
</svg>
