<?xml version="1.0" encoding="iso-8859-1"?>
<!-- Generator: Adobe Illustrator 23.0.4, SVG Export Plug-In . SVG Version: 6.00 Build 0)  -->
<svg version="1.1" id="Layer_1" xmlns="http://www.w3.org/2000/svg" xmlns:xlink="http://www.w3.org/1999/xlink" x="0px" y="0px"
	 width="864px" height="864px" viewBox="0 0 864 864" enable-background="new 0 0 864 864" xml:space="preserve">
<g>
	<path fill="#FFFFFF" d="M586.609,71.245H483.536v103.073v103.073v103.073h103.073c56.926,0,103.073-46.147,103.073-103.073V174.318
		C689.682,117.392,643.535,71.245,586.609,71.245z"/>
	<polygon fill="#FFFFFF" points="174.318,483.536 174.318,586.609 174.318,689.682 174.318,792.755 277.391,792.755 
		380.464,792.755 380.464,689.682 380.464,586.609 380.464,483.536 277.391,483.536 	"/>
	<path fill="#FFFFFF" d="M174.318,71.245v103.073v103.073c0,56.926,46.147,103.073,103.073,103.073
		c56.926,0,103.073-46.147,103.073-103.073V174.318V71.245H277.391H174.318z"/>
	<path fill="#FFFFFF" d="M689.682,586.609c0-56.926-46.147-103.073-103.073-103.073H483.536v103.073v103.073v103.073h103.073
		h103.073c0-56.926-46.147-103.073-103.073-103.073C643.535,689.682,689.682,643.535,689.682,586.609z"/>
</g>
</svg>
